<svg id="Layer_1" data-name="Layer 1" xmlns="http://www.w3.org/2000/svg" xmlns:xlink="http://www.w3.org/1999/xlink" viewBox="0 0 117.04 117.06"><defs><style>.cls-1{fill:none;}.cls-2{fill:#00aeef;}.cls-3{fill:#1b75bc;}.cls-4{fill:#14477e;}.cls-5{fill:#fff;}.cls-6{fill:#1a1a1a;}.cls-7{clip-path:url(#clip-path);}.cls-8{opacity:0.15;}</style><clipPath id="clip-path" transform="translate(-6.98 -6.74)"><rect class="cls-1" x="65.52" y="6.74" width="58.5" height="116.99"/></clipPath></defs><title>avatar</title><path class="cls-2" d="M65.47,123.81A58.5,58.5,0,1,0,7,65.31a58.61,58.61,0,0,0,58.5,58.5" transform="translate(-6.98 -6.74)"/><path class="cls-3" d="M87.54,58.23,98.57,91l6,17.8a58.28,58.28,0,0,1-39.09,15h0a58.28,58.28,0,0,1-39.09-15l6-17.8,11-32.79Z" transform="translate(-6.98 -6.74)"/><path class="cls-3" d="M96.14,22.52C91.55,20,67.88,43.45,79.36,52s21.37-27,16.78-29.47" transform="translate(-6.98 -6.74)"/><path class="cls-4" d="M96.44,24.44c-2.84-2-10.86,5.63-8.52,16,.64,2.86-7.46,12.27-5.57,13.63,7,5,18-26.85,14.09-29.65" transform="translate(-6.98 -6.74)"/><path class="cls-3" d="M35.21,22.52C39.8,20,63.47,43.45,52,52S30.62,25,35.21,22.52" transform="translate(-6.98 -6.74)"/><path class="cls-4" d="M34.92,24.44c2.84-2,10.86,5.63,8.52,16C42.8,43.32,50.9,52.73,49,54.1c-7,5-18-26.85-14.09-29.65" transform="translate(-6.98 -6.74)"/><path class="cls-3" d="M84.43,34.48l19,32.63L65.47,90.74,27.55,67.1l19-32.63H84.43Z" transform="translate(-6.98 -6.74)"/><path class="cls-4" d="M64.89,90.74,103.4,67.1c-19-32.63-37.92-32.63-38.22,14.4.29-47-14.55-47-38.22-14.4L64.89,90.74Z" transform="translate(-6.98 -6.74)"/><path d="M54.63,51.61A3.44,3.44,0,1,1,51.19,55a3.44,3.44,0,0,1,3.44-3.44" transform="translate(-6.98 -6.74)"/><path class="cls-5" d="M56.11,52.25a1.23,1.23,0,1,1-1.23,1.23,1.23,1.23,0,0,1,1.23-1.23" transform="translate(-6.98 -6.74)"/><path d="M76.32,51.61A3.44,3.44,0,1,1,72.88,55a3.44,3.44,0,0,1,3.44-3.44" transform="translate(-6.98 -6.74)"/><path class="cls-5" d="M77.8,52.25a1.23,1.23,0,1,1-1.23,1.23,1.23,1.23,0,0,1,1.23-1.23" transform="translate(-6.98 -6.74)"/><path class="cls-6" d="M58.75,74.78c4.17-2.42,8.88-2.59,12.85,0L64.89,81.5Z" transform="translate(-6.98 -6.74)"/><path class="cls-5" d="M64.89,90.74,103.4,67.1c-17.4-8-29.81-2.3-38.22,14.4C56.77,64.8,44.36,59.08,27,67.1L64.89,90.74Z" transform="translate(-6.98 -6.74)"/><g class="cls-7"><g class="cls-8"><g class="cls-7"><path d="M65.52,6.74a58.5,58.5,0,1,1,0,117V6.74Z" transform="translate(-6.98 -6.74)"/></g></g></g></svg>