<?xml version="1.0" encoding="UTF-8" standalone="no"?><!DOCTYPE svg PUBLIC "-//W3C//DTD SVG 1.1//EN" "http://www.w3.org/Graphics/SVG/1.1/DTD/svg11.dtd"><svg width="100%" height="100%" viewBox="0 0 625 625" version="1.1" xmlns="http://www.w3.org/2000/svg" xmlns:xlink="http://www.w3.org/1999/xlink" xml:space="preserve" style="fill-rule:evenodd;clip-rule:evenodd;stroke-linejoin:round;stroke-miterlimit:1.41421;"><g><path d="M312.503,580.105c147.39,0 267.601,-120.214 267.601,-267.607c0,-147.391 -120.211,-267.604 -267.601,-267.604c-147.391,0 -267.607,120.213 -267.607,267.604c0,147.393 120.216,267.607 267.607,267.607" style="fill:#4087db;"/><path d="M413.451,280.114l50.48,149.995l27.408,81.449c-47.392,42.605 -110.065,68.539 -178.807,68.546l-0.06,0c-68.74,-0.007 -131.417,-25.941 -178.807,-68.546l27.41,-81.449l50.475,-149.995l201.901,0Z" style="fill:#f4762f;"/><path d="M452.807,116.765c-21.004,-11.51 -129.302,95.728 -76.758,134.823c52.547,39.096 97.762,-123.312 76.758,-134.823" style="fill:#f4762f;"/><path d="M454.145,125.552c-13.001,-9.345 -49.681,25.767 -38.981,73.284c2.938,13.061 -34.148,56.134 -25.491,62.359c31.926,22.952 82.308,-122.82 64.472,-135.643" style="fill:#a2450f;"/><path d="M174.057,116.765c21.004,-11.51 129.297,95.728 76.753,134.823c-52.542,39.096 -97.756,-123.312 -76.753,-134.823" style="fill:#f4762f;"/><path d="M172.719,125.552c12.996,-9.345 49.681,25.767 38.981,73.284c-2.938,13.061 34.148,56.134 25.486,62.359c-31.926,22.952 -82.308,-122.82 -64.467,-135.643" style="fill:#a2450f;"/><path d="M399.246,171.454l86.749,149.253l-173.492,108.136l-173.497,-108.133l86.748,-149.253l173.492,-0.003Z" style="fill:#f4762f;"/><path d="M309.815,428.841l176.18,-108.135c-86.749,-149.253 -173.492,-149.253 -174.835,65.854c1.343,-215.107 -66.565,-215.107 -174.837,-65.854l173.492,108.135Z" style="fill:#a2450f;"/><path d="M262.882,249.808c8.693,0 15.741,7.047 15.741,15.738c0,8.692 -7.048,15.737 -15.741,15.737c-8.687,0 -15.735,-7.045 -15.735,-15.737c0,-8.691 7.048,-15.738 15.735,-15.738" style="fill:#000;"/><path d="M269.661,252.735c3.101,0 5.613,2.514 5.613,5.61c0,3.098 -2.512,5.609 -5.613,5.609c-3.096,0 -5.607,-2.511 -5.607,-5.609c0,-3.096 2.511,-5.61 5.607,-5.61" style="fill:#fff;"/><path d="M362.118,249.808c8.693,0 15.735,7.047 15.735,15.738c0,8.692 -7.042,15.737 -15.735,15.737c-8.688,0 -15.74,-7.045 -15.74,-15.737c0,-8.691 7.052,-15.738 15.74,-15.738" style="fill:#000;"/><path d="M368.897,252.735c3.096,0 5.607,2.514 5.607,5.61c0,3.098 -2.511,5.609 -5.607,5.609c-3.096,0 -5.612,-2.511 -5.612,-5.609c0,-3.096 2.516,-5.61 5.612,-5.61" style="fill:#fff;"/><path d="M281.765,355.815c19.069,-11.064 40.618,-11.866 58.787,0l-30.736,30.746l-28.051,-30.746Z" style="fill:#1a1a1a;"/><path d="M309.815,428.841l176.18,-108.135c-79.605,-36.7 -136.35,-10.524 -174.835,65.854c-38.487,-76.378 -95.232,-102.554 -174.837,-65.854l173.492,108.135Z" style="fill:#fff;"/><g><clipPath id="_clip1"><rect x="311.28" y="44.895" width="267.606" height="535.21"/></clipPath><g clip-path="url(#_clip1)"><g opacity="0.149994"><clipPath id="_clip2"><rect x="311.28" y="44.895" width="267.607" height="535.211"/></clipPath><g clip-path="url(#_clip2)"><path d="M311.28,44.895c147.797,0 267.607,119.813 267.607,267.607c0,147.792 -119.81,267.604 -267.607,267.604l0,-535.211Z" style="fill:#000;"/></g></g></g></g></g></svg>