<?xml version="1.0" encoding="UTF-8" standalone="no"?><!DOCTYPE svg PUBLIC "-//W3C//DTD SVG 1.1//EN" "http://www.w3.org/Graphics/SVG/1.1/DTD/svg11.dtd"><svg width="100%" height="100%" viewBox="0 0 800 400" version="1.1" xmlns="http://www.w3.org/2000/svg" xmlns:xlink="http://www.w3.org/1999/xlink" xml:space="preserve" style="fill-rule:evenodd;clip-rule:evenodd;stroke-linejoin:round;stroke-miterlimit:1.41421;"><rect id="BACKGROUND" x="-10.118" y="-98.638" width="816.579" height="505.664" style="fill:#b5e4fa;"/><path d="M626.17,303.533l32.586,0l0,4.274l-32.586,0l0,-4.274l0,0Zm-176.103,-66.295l17.834,0l0,3.172l-17.834,0l0,-3.172Zm211.342,70.568l0,-4.273l2.776,0l0,-0.84l-43.294,0l0,0.84l2.627,0l0,4.273l-5.535,0l0,9.296l-8.442,0l0,-21.434l-34.569,0l0,-4.678l-2.653,0l0,4.678l-4.94,0l0,35.348l-9.374,0l0,-21.132l-6.089,0l0,-50.729l-21.284,-8.039l-21.285,8.039l0,24.506l-7.282,0l0,-6.244l-7.066,0l0,6.244l-5.818,0l0,-2.435l-4.892,0l0,2.435l-4.297,0l0,-43.251l-8.515,0l0,-3.172l5.964,0l0,-2.13l-36.914,0l0,2.13l5.963,0l0,3.172l-8.515,0l0,69.474l-9.354,0l0,-69.474l-4.231,0l0,-6.345l-12.978,0l0,6.345l-7.598,0l0,-6.345l-12.978,0l0,6.345l-4.231,0l0,67.908l-19.251,0l0,-5.87l-8.481,0l0,5.87l-2.797,0l0,13.06l-20.352,0l0,-19.566l-37.182,-12.439l0,50.345l368.402,0l0,-31.912l-5.535,0l0,0Z" style="fill:#84d2f6;fill-rule:nonzero;"/><rect x="-2.946" y="339.669" width="804.203" height="67.822" style="fill:#2368a4;"/><path d="M219.795,340.672l-222.386,0l0,-25.228c17.065,-9.272 35.893,-17.561 69.521,-17.561c76.438,0 76.438,42.789 152.865,42.789" style="fill:#2368a4;fill-rule:nonzero;"/><path d="M66.932,339.668l152.861,0c-76.43,0 -76.43,-42.783 -152.86,-42.783l-0.001,0l0,42.783Z" style="fill:#265a86;fill-rule:nonzero;"/><path d="M415.259,340.508c-97.732,0 -97.732,-54.708 -195.465,-54.708c-97.734,0 -97.734,54.708 -195.467,54.708l390.932,0Z" style="fill:#2368a4;fill-rule:nonzero;"/><path d="M219.793,340.508l195.466,0c-97.732,0 -97.732,-54.708 -195.465,-54.708l-0.001,0l0,54.708Z" style="fill:#2b6190;fill-rule:nonzero;"/><path d="M802.865,296.849l0,43.663l-184.882,0c80.636,0 80.636,-45.141 161.282,-45.141c8.749,0 16.552,0.529 23.6,1.478" style="fill:#2368a4;fill-rule:nonzero;"/><path d="M802.865,296.01l0,43.662l-23.6,0l0,-45.14c8.749,0 16.552,0.529 23.6,1.478" style="fill:#2368a4;fill-rule:nonzero;"/><path d="M162.662,325.95l0,26.867c0,0.929 1.372,1.683 3.063,1.683c1.691,0 3.064,-0.754 3.064,-1.683l0,-26.867l-6.127,0Z" style="fill:#6e4d42;fill-rule:nonzero;"/><path d="M168.788,325.95l0,26.867c0,0.929 -1.372,1.683 -3.063,1.683l0,-28.55l3.063,0Z" style="fill:#4e352e;fill-rule:nonzero;"/><path d="M186.034,309.747c0,17.608 -9.093,31.882 -20.309,31.882c-11.217,0 -20.31,-14.274 -20.31,-31.882c0,-17.608 9.093,-31.882 20.31,-31.882c11.216,0 20.309,14.274 20.309,31.882" style="fill:#417db1;fill-rule:nonzero;"/><path d="M165.725,277.864l0,63.764c11.216,0 20.309,-14.274 20.309,-31.882c0,-17.608 -9.093,-31.882 -20.309,-31.882" style="fill:#0d4779;fill-rule:nonzero;"/><path d="M158.263,329.09c0,0.901 -0.874,1.631 -1.955,1.631c-1.079,0 -1.955,-0.73 -1.955,-1.631c0,-0.901 0.876,-1.631 1.955,-1.631c1.081,0 1.955,0.73 1.955,1.631" style="fill:#0d4779;fill-rule:nonzero;"/><path d="M163.527,317.247c0,0.901 -0.875,1.631 -1.955,1.631c-1.079,0 -1.955,-0.73 -1.955,-1.631c0,-0.901 0.876,-1.631 1.955,-1.631c1.08,0 1.955,0.73 1.955,1.631" style="fill:#0d4779;fill-rule:nonzero;"/><path d="M151.22,308.554c0,0.901 -0.875,1.631 -1.956,1.631c-1.079,0 -1.955,-0.73 -1.955,-1.631c0,-0.9 0.876,-1.631 1.955,-1.631c1.081,0 1.956,0.731 1.956,1.631" style="fill:#0d4779;fill-rule:nonzero;"/><path d="M161.572,297.26c0,0.9 -0.875,1.631 -1.955,1.631c-1.081,0 -1.956,-0.731 -1.956,-1.631c0,-0.901 0.875,-1.631 1.956,-1.631c1.08,0 1.955,0.73 1.955,1.631" style="fill:#0d4779;fill-rule:nonzero;"/><path d="M171.831,284.914c0,0.901 -0.875,1.631 -1.955,1.631c-1.079,0 -1.955,-0.73 -1.955,-1.631c0,-0.901 0.876,-1.631 1.955,-1.631c1.08,0 1.955,0.73 1.955,1.631" style="fill:#417db1;fill-rule:nonzero;"/><path d="M179.79,292.981c0,0.901 -0.875,1.631 -1.955,1.631c-1.08,0 -1.955,-0.73 -1.955,-1.631c0,-0.901 0.875,-1.631 1.955,-1.631c1.08,0 1.955,0.73 1.955,1.631" style="fill:#417db1;fill-rule:nonzero;"/><path d="M171.831,302.381c0,0.901 -0.875,1.631 -1.955,1.631c-1.079,0 -1.955,-0.73 -1.955,-1.631c0,-0.901 0.876,-1.631 1.955,-1.631c1.08,0 1.955,0.73 1.955,1.631" style="fill:#417db1;fill-rule:nonzero;"/><path d="M179.79,307.712c0,0.901 -0.875,1.631 -1.955,1.631c-1.08,0 -1.955,-0.73 -1.955,-1.631c0,-0.9 0.875,-1.631 1.955,-1.631c1.08,0 1.955,0.731 1.955,1.631" style="fill:#417db1;fill-rule:nonzero;"/><path d="M171.167,320.509c0,0.901 -0.876,1.631 -1.955,1.631c-1.081,0 -1.956,-0.73 -1.956,-1.631c0,-0.901 0.875,-1.631 1.956,-1.631c1.079,0 1.955,0.73 1.955,1.631" style="fill:#417db1;fill-rule:nonzero;"/><path d="M177.475,331.663c0,0.901 -0.875,1.631 -1.956,1.631c-1.079,0 -1.955,-0.73 -1.955,-1.631c0,-0.9 0.876,-1.631 1.955,-1.631c1.081,0 1.956,0.731 1.956,1.631" style="fill:#417db1;fill-rule:nonzero;"/><path d="M158.263,287.579c0,0.902 -0.874,1.631 -1.955,1.631c-1.079,0 -1.955,-0.729 -1.955,-1.631c0,-0.9 0.876,-1.631 1.955,-1.631c1.081,0 1.955,0.731 1.955,1.631" style="fill:#0d4779;fill-rule:nonzero;"/><path d="M87.905,308.057l0,36.702c0,1.27 1.874,2.3 4.184,2.3c2.311,0 4.185,-1.03 4.185,-2.3l0,-36.702l-8.369,0l0,0Z" style="fill:#6e4d42;fill-rule:nonzero;"/><path d="M96.274,308.057l0,36.702c0,1.27 -1.874,2.3 -4.185,2.3l0,-39.002l4.185,0Z" style="fill:#4e352e;fill-rule:nonzero;"/><path d="M119.833,285.921c0,24.054 -12.421,43.553 -27.744,43.553c-15.323,0 -27.744,-19.499 -27.744,-43.553c0,-24.055 12.421,-43.554 27.744,-43.554c15.323,0 27.744,19.499 27.744,43.554" style="fill:#417db1;fill-rule:nonzero;"/><path d="M92.089,242.367l0,87.107c15.323,0 27.744,-19.499 27.744,-43.553c0,-24.054 -12.421,-43.554 -27.744,-43.554" style="fill:#0d4779;fill-rule:nonzero;"/><path d="M81.895,312.346c0,1.23 -1.196,2.228 -2.671,2.228c-1.475,0 -2.671,-0.998 -2.671,-2.228c0,-1.23 1.196,-2.228 2.671,-2.228c1.475,0 2.671,0.998 2.671,2.228" style="fill:#0d4779;fill-rule:nonzero;"/><path d="M89.086,296.168c0,1.231 -1.196,2.228 -2.671,2.228c-1.475,0 -2.671,-0.997 -2.671,-2.228c0,-1.23 1.196,-2.228 2.671,-2.228c1.475,0 2.671,0.998 2.671,2.228" style="fill:#0d4779;fill-rule:nonzero;"/><path d="M72.274,284.292c0,1.231 -1.196,2.228 -2.671,2.228c-1.475,0 -2.671,-0.997 -2.671,-2.228c0,-1.23 1.196,-2.228 2.671,-2.228c1.475,0 2.671,0.998 2.671,2.228" style="fill:#0d4779;fill-rule:nonzero;"/><path d="M86.415,268.864c0,1.23 -1.196,2.228 -2.671,2.228c-1.475,0 -2.671,-0.998 -2.671,-2.228c0,-1.231 1.196,-2.228 2.671,-2.228c1.475,0 2.671,0.997 2.671,2.228" style="fill:#0d4779;fill-rule:nonzero;"/><path d="M100.431,251.998c0,1.231 -1.196,2.228 -2.671,2.228c-1.475,0 -2.671,-0.997 -2.671,-2.228c0,-1.23 1.196,-2.228 2.671,-2.228c1.475,0 2.671,0.998 2.671,2.228" style="fill:#417db1;fill-rule:nonzero;"/><path d="M111.303,263.019c0,1.23 -1.196,2.228 -2.671,2.228c-1.475,0 -2.671,-0.998 -2.671,-2.228c0,-1.231 1.196,-2.229 2.671,-2.229c1.475,0 2.671,0.998 2.671,2.229" style="fill:#417db1;fill-rule:nonzero;"/><path d="M100.431,275.86c0,1.23 -1.196,2.228 -2.671,2.228c-1.475,0 -2.671,-0.998 -2.671,-2.228c0,-1.231 1.196,-2.229 2.671,-2.229c1.475,0 2.671,0.998 2.671,2.229" style="fill:#417db1;fill-rule:nonzero;"/><path d="M111.303,283.142c0,1.23 -1.196,2.228 -2.671,2.228c-1.475,0 -2.671,-0.998 -2.671,-2.228c0,-1.231 1.196,-2.228 2.671,-2.228c1.475,0 2.671,0.997 2.671,2.228" style="fill:#417db1;fill-rule:nonzero;"/><path d="M99.524,300.624c0,1.231 -1.197,2.229 -2.672,2.229c-1.475,0 -2.671,-0.998 -2.671,-2.229c0,-1.23 1.196,-2.228 2.671,-2.228c1.475,0 2.672,0.998 2.672,2.228" style="fill:#417db1;fill-rule:nonzero;"/><path d="M108.139,315.861c0,1.23 -1.196,2.228 -2.671,2.228c-1.475,0 -2.671,-0.998 -2.671,-2.228c0,-1.231 1.196,-2.228 2.671,-2.228c1.475,0 2.671,0.997 2.671,2.228" style="fill:#417db1;fill-rule:nonzero;"/><path d="M81.895,255.64c0,1.23 -1.196,2.228 -2.671,2.228c-1.475,0 -2.671,-0.998 -2.671,-2.228c0,-1.231 1.196,-2.228 2.671,-2.228c1.475,0 2.671,0.997 2.671,2.228" style="fill:#0d4779;fill-rule:nonzero;"/><path d="M698.611,318.574l0,31.478c0,1.089 1.607,1.972 3.588,1.972c1.983,0 3.589,-0.883 3.589,-1.972l0,-31.478l-7.177,0Z" style="fill:#6e4d42;fill-rule:nonzero;"/><path d="M705.787,318.574l0,31.478c0,1.089 -1.606,1.972 -3.588,1.972l0,-33.45l3.588,0Z" style="fill:#4e352e;fill-rule:nonzero;"/><path d="M725.993,299.589c0,20.63 -10.653,37.354 -23.794,37.354c-13.142,0 -23.795,-16.724 -23.795,-37.354c0,-20.63 10.653,-37.354 23.795,-37.354c13.141,0 23.794,16.724 23.794,37.354" style="fill:#417db1;fill-rule:nonzero;"/><path d="M702.199,262.235l0,74.708c13.141,0 23.794,-16.724 23.794,-37.354c0,-20.63 -10.653,-37.354 -23.794,-37.354" style="fill:#0d4779;fill-rule:nonzero;"/><path d="M693.457,322.252c0,1.055 -1.026,1.91 -2.291,1.91c-1.265,0 -2.29,-0.855 -2.29,-1.91c0,-1.056 1.025,-1.911 2.29,-1.911c1.265,0 2.291,0.855 2.291,1.911" style="fill:#0d4779;fill-rule:nonzero;"/><path d="M699.624,308.378c0,1.055 -1.025,1.91 -2.291,1.91c-1.265,0 -2.29,-0.855 -2.29,-1.91c0,-1.056 1.025,-1.911 2.29,-1.911c1.266,0 2.291,0.855 2.291,1.911" style="fill:#0d4779;fill-rule:nonzero;"/><path d="M685.205,298.192c0,1.055 -1.026,1.91 -2.291,1.91c-1.265,0 -2.291,-0.855 -2.291,-1.91c0,-1.056 1.026,-1.911 2.291,-1.911c1.265,0 2.291,0.855 2.291,1.911" style="fill:#0d4779;fill-rule:nonzero;"/><path d="M697.333,284.96c0,1.056 -1.026,1.911 -2.29,1.911c-1.266,0 -2.292,-0.855 -2.292,-1.911c0,-1.056 1.026,-1.911 2.292,-1.911c1.264,0 2.29,0.855 2.29,1.911" style="fill:#0d4779;fill-rule:nonzero;"/><path d="M709.354,270.495c0,1.055 -1.026,1.91 -2.291,1.91c-1.266,0 -2.291,-0.855 -2.291,-1.91c0,-1.056 1.025,-1.911 2.291,-1.911c1.265,0 2.291,0.855 2.291,1.911" style="fill:#417db1;fill-rule:nonzero;"/><path d="M718.678,279.946c0,1.056 -1.025,1.911 -2.291,1.911c-1.265,0 -2.29,-0.855 -2.29,-1.911c0,-1.055 1.025,-1.91 2.29,-1.91c1.266,0 2.291,0.855 2.291,1.91" style="fill:#417db1;fill-rule:nonzero;"/><path d="M709.354,290.96c0,1.055 -1.026,1.91 -2.291,1.91c-1.266,0 -2.291,-0.855 -2.291,-1.91c0,-1.056 1.025,-1.911 2.291,-1.911c1.265,0 2.291,0.855 2.291,1.911" style="fill:#417db1;fill-rule:nonzero;"/><path d="M718.678,297.206c0,1.055 -1.025,1.91 -2.291,1.91c-1.265,0 -2.29,-0.855 -2.29,-1.91c0,-1.056 1.025,-1.911 2.29,-1.911c1.266,0 2.291,0.855 2.291,1.911" style="fill:#417db1;fill-rule:nonzero;"/><path d="M708.575,312.199c0,1.056 -1.026,1.911 -2.29,1.911c-1.266,0 -2.292,-0.855 -2.292,-1.911c0,-1.056 1.026,-1.911 2.292,-1.911c1.264,0 2.29,0.855 2.29,1.911" style="fill:#417db1;fill-rule:nonzero;"/><path d="M715.964,325.267c0,1.055 -1.026,1.91 -2.29,1.91c-1.266,0 -2.292,-0.855 -2.292,-1.91c0,-1.056 1.026,-1.911 2.292,-1.911c1.264,0 2.29,0.855 2.29,1.911" style="fill:#417db1;fill-rule:nonzero;"/><path d="M693.457,273.618c0,1.056 -1.026,1.911 -2.291,1.911c-1.265,0 -2.29,-0.855 -2.29,-1.911c0,-1.056 1.025,-1.911 2.29,-1.911c1.265,0 2.291,0.855 2.291,1.911" style="fill:#0d4779;fill-rule:nonzero;"/><path d="M343.719,350.92c-4.319,0 -7.818,2.92 -7.818,6.522l15.636,0c0,-3.602 -3.5,-6.522 -7.818,-6.522" style="fill:#2d88d7;fill-rule:nonzero;"/><path d="M350.928,353.156c-2.838,0 -5.138,1.919 -5.138,4.286l10.275,0c0,-2.367 -2.299,-4.286 -5.137,-4.286" style="fill:#0d4779;fill-rule:nonzero;"/><path d="M763.966,319.603l0,44.816c0,1.551 2.287,2.808 5.109,2.808c2.822,0 5.11,-1.257 5.11,-2.808l0,-44.816l-10.219,0l0,0Z" style="fill:#6e4d42;fill-rule:nonzero;"/><path d="M774.184,319.603l0,44.816c0,1.551 -2.288,2.808 -5.11,2.808l0,-47.624l5.11,0Z" style="fill:#4e352e;fill-rule:nonzero;"/><path d="M802.952,292.573c0,29.372 -15.168,53.182 -33.878,53.182c-18.711,0 -33.877,-23.81 -33.877,-53.182c0,-29.372 15.166,-53.182 33.877,-53.182c18.71,0 33.878,23.81 33.878,53.182" style="fill:#417db1;fill-rule:nonzero;"/><path d="M769.074,239.39l0,106.365c18.71,0 33.878,-23.811 33.878,-53.183c0,-29.371 -15.168,-53.182 -33.878,-53.182" style="fill:#0d4779;fill-rule:nonzero;"/><path d="M756.628,324.839c0,1.503 -1.46,2.721 -3.262,2.721c-1.801,0 -3.261,-1.218 -3.261,-2.721c0,-1.502 1.46,-2.721 3.261,-2.721c1.802,0 3.262,1.219 3.262,2.721" style="fill:#0d4779;fill-rule:nonzero;"/><path d="M765.407,305.086c0,1.502 -1.46,2.72 -3.262,2.72c-1.801,0 -3.261,-1.218 -3.261,-2.72c0,-1.503 1.46,-2.721 3.261,-2.721c1.802,0 3.262,1.218 3.262,2.721" style="fill:#0d4779;fill-rule:nonzero;"/><path d="M744.879,290.583c0,1.503 -1.46,2.721 -3.261,2.721c-1.802,0 -3.262,-1.218 -3.262,-2.721c0,-1.502 1.46,-2.721 3.262,-2.721c1.801,0 3.261,1.219 3.261,2.721" style="fill:#0d4779;fill-rule:nonzero;"/><path d="M762.146,271.744c0,1.503 -1.46,2.721 -3.261,2.721c-1.802,0 -3.262,-1.218 -3.262,-2.721c0,-1.502 1.46,-2.721 3.262,-2.721c1.801,0 3.261,1.219 3.261,2.721" style="fill:#0d4779;fill-rule:nonzero;"/><path d="M779.26,251.15c0,1.503 -1.46,2.721 -3.261,2.721c-1.802,0 -3.262,-1.218 -3.262,-2.721c0,-1.502 1.46,-2.72 3.262,-2.72c1.801,0 3.261,1.218 3.261,2.72" style="fill:#417db1;fill-rule:nonzero;"/><path d="M792.536,264.607c0,1.502 -1.46,2.72 -3.261,2.72c-1.801,0 -3.262,-1.218 -3.262,-2.72c0,-1.503 1.461,-2.721 3.262,-2.721c1.801,0 3.261,1.218 3.261,2.721" style="fill:#417db1;fill-rule:nonzero;"/><path d="M779.26,280.286c0,1.503 -1.46,2.721 -3.261,2.721c-1.802,0 -3.262,-1.218 -3.262,-2.721c0,-1.502 1.46,-2.72 3.262,-2.72c1.801,0 3.261,1.218 3.261,2.72" style="fill:#417db1;fill-rule:nonzero;"/><path d="M792.536,289.179c0,1.503 -1.46,2.72 -3.261,2.72c-1.801,0 -3.262,-1.217 -3.262,-2.72c0,-1.502 1.461,-2.721 3.262,-2.721c1.801,0 3.261,1.219 3.261,2.721" style="fill:#417db1;fill-rule:nonzero;"/><path d="M778.153,310.527c0,1.502 -1.46,2.721 -3.261,2.721c-1.803,0 -3.263,-1.219 -3.263,-2.721c0,-1.503 1.46,-2.72 3.263,-2.72c1.801,0 3.261,1.217 3.261,2.72" style="fill:#417db1;fill-rule:nonzero;"/><path d="M788.673,329.132c0,1.502 -1.46,2.72 -3.261,2.72c-1.802,0 -3.262,-1.218 -3.262,-2.72c0,-1.503 1.46,-2.721 3.262,-2.721c1.801,0 3.261,1.218 3.261,2.721" style="fill:#417db1;fill-rule:nonzero;"/><path d="M756.628,255.597c0,1.502 -1.46,2.72 -3.262,2.72c-1.801,0 -3.261,-1.218 -3.261,-2.72c0,-1.502 1.46,-2.72 3.261,-2.72c1.802,0 3.262,1.218 3.262,2.72" style="fill:#0d4779;fill-rule:nonzero;"/><path d="M774.213,362.942c-2.838,0 -5.138,1.919 -5.138,4.285l10.276,0c0,-2.366 -2.301,-4.285 -5.138,-4.285" style="fill:#417db1;fill-rule:nonzero;"/><path d="M784.102,359.999c-4.785,0 -8.666,3.236 -8.666,7.228l17.332,0c0,-3.992 -3.881,-7.228 -8.666,-7.228" style="fill:#164d7d;fill-rule:nonzero;"/><path d="M534.606,356.565c-4.548,0 -8.234,3.074 -8.234,6.868l16.468,0c0,-3.794 -3.686,-6.868 -8.234,-6.868" style="fill:#f5f5f6;fill-rule:nonzero;"/><path d="M542.84,363.433c0,-3.794 -3.686,-6.868 -8.234,-6.868l0,6.868l8.234,0Z" style="fill:#e1e1e0;fill-rule:nonzero;"/><path d="M145.416,351.489c-4.547,0 -8.233,3.074 -8.233,6.868l16.467,0c0,-3.794 -3.686,-6.868 -8.234,-6.868" style="fill:#f5f5f6;fill-rule:nonzero;"/><path d="M153.65,358.357c0,-3.794 -3.687,-6.868 -8.234,-6.868l0,6.868l8.234,0Z" style="fill:#e1e1e0;fill-rule:nonzero;"/><path d="M637.126,341.445c-2.395,0 -4.337,1.619 -4.337,3.617l8.674,0c0,-1.998 -1.941,-3.617 -4.337,-3.617" style="fill:#f5f5f6;fill-rule:nonzero;"/><path d="M641.464,345.062c0,-1.998 -1.942,-3.617 -4.337,-3.617l0,3.617l4.337,0Z" style="fill:#e1e1e0;fill-rule:nonzero;"/><path d="M198.095,346.3c-2.395,0 -4.337,1.62 -4.337,3.618l8.674,0c0,-1.998 -1.941,-3.618 -4.337,-3.618" style="fill:#f5f5f6;fill-rule:nonzero;"/><path d="M202.433,349.918c0,-1.998 -1.941,-3.618 -4.337,-3.618l0,3.618l4.337,0Z" style="fill:#e1e1e0;fill-rule:nonzero;"/><path d="M720.977,348.643c-3.486,0 -6.313,2.358 -6.313,5.267l12.627,0c0,-2.909 -2.827,-5.267 -6.314,-5.267" style="fill:#f5f5f6;fill-rule:nonzero;"/><path d="M727.291,353.91c0,-2.908 -2.827,-5.267 -6.314,-5.267l0,5.267l6.314,0Z" style="fill:#e1e1e0;fill-rule:nonzero;"/><path d="M267.018,286.861l0,7.891c0,0.273 0.403,0.495 0.9,0.495c0.497,0 0.899,-0.222 0.899,-0.495l0,-7.891l-1.799,0Z" style="fill:#6e4d42;fill-rule:nonzero;"/><path d="M268.817,286.861l0,7.891c0,0.273 -0.402,0.495 -0.9,0.495l0,-8.386l0.9,0Z" style="fill:#5e4137;fill-rule:nonzero;"/><path d="M267.918,269.343l-8.255,21.711l16.51,0l-8.255,-21.711Z" style="fill:#417db1;fill-rule:nonzero;"/><path d="M276.172,291.054l-8.255,-21.711l0,21.711l8.255,0Z" style="fill:#0d4779;fill-rule:nonzero;"/><path d="M197.438,281.423l0,5.768c0,0.2 0.295,0.362 0.657,0.362c0.364,0 0.658,-0.162 0.658,-0.362l0,-5.768l-1.315,0l0,0Z" style="fill:#6e4d42;fill-rule:nonzero;"/><path d="M198.753,281.423l0,5.768c0,0.2 -0.294,0.362 -0.658,0.362l0,-6.13l0.658,0Z" style="fill:#5e4137;fill-rule:nonzero;"/><path d="M198.095,268.621l-6.033,15.867l12.066,0l-6.033,-15.867l0,0Z" style="fill:#417db1;fill-rule:nonzero;"/><path d="M204.128,284.489l-6.033,-15.867l0,15.867l6.033,0Z" style="fill:#0d4779;fill-rule:nonzero;"/><path d="M324.075,321.529l0,7.892c0,0.273 0.402,0.494 0.9,0.494c0.496,0 0.899,-0.221 0.899,-0.494l0,-7.892l-1.799,0Z" style="fill:#6e4d42;fill-rule:nonzero;"/><path d="M325.874,321.529l0,7.892c0,0.273 -0.403,0.494 -0.9,0.494l0,-8.386l0.9,0Z" style="fill:#5e4137;fill-rule:nonzero;"/><path d="M324.975,304.012l-8.255,21.71l16.51,0l-8.255,-21.71l0,0Z" style="fill:#417db1;fill-rule:nonzero;"/><path d="M333.23,325.722l-8.255,-21.71l0,21.71l8.255,0Z" style="fill:#0d4779;fill-rule:nonzero;"/><path d="M661.206,330.977l0,7.892c0,0.273 0.403,0.494 0.901,0.494c0.496,0 0.899,-0.221 0.899,-0.494l0,-7.892l-1.8,0Z" style="fill:#6e4d42;fill-rule:nonzero;"/><path d="M663.006,330.977l0,7.892c0,0.273 -0.403,0.494 -0.9,0.494l0,-8.386l0.9,0Z" style="fill:#5e4137;fill-rule:nonzero;"/><path d="M662.106,313.46l-8.255,21.71l16.509,0l-8.254,-21.71l0,0Z" style="fill:#417db1;fill-rule:nonzero;"/><path d="M670.36,335.17l-8.254,-21.71l0,21.71l8.254,0Z" style="fill:#0d4779;fill-rule:nonzero;"/><path d="M128.028,308.577l0,7.892c0,0.273 0.402,0.494 0.9,0.494c0.496,0 0.899,-0.221 0.899,-0.494l0,-7.892l-1.799,0Z" style="fill:#6e4d42;fill-rule:nonzero;"/><path d="M129.827,308.577l0,7.892c0,0.273 -0.403,0.494 -0.9,0.494l0,-8.386l0.9,0Z" style="fill:#5e4137;fill-rule:nonzero;"/><path d="M128.928,291.06l-8.255,21.71l16.51,0l-8.255,-21.71Z" style="fill:#417db1;fill-rule:nonzero;"/><path d="M137.182,312.77l-8.255,-21.71l0,21.71l8.255,0Z" style="fill:#0d4779;fill-rule:nonzero;"/><path d="M9.987,306.946l0,7.892c0,0.273 0.403,0.494 0.9,0.494c0.496,0 0.899,-0.221 0.899,-0.494l0,-7.892l-1.799,0Z" style="fill:#6e4d42;fill-rule:nonzero;"/><path d="M11.786,306.946l0,7.892c0,0.273 -0.403,0.494 -0.9,0.494l0,-8.386l0.9,0Z" style="fill:#5e4137;fill-rule:nonzero;"/><path d="M10.886,289.429l-8.255,21.71l16.51,0l-8.255,-21.71l0,0Z" style="fill:#417db1;fill-rule:nonzero;"/><path d="M19.141,311.139l-8.255,-21.71l0,21.71l8.255,0Z" style="fill:#0d4779;fill-rule:nonzero;"/><path d="M231.296,319.453l0,12.341c0,0.427 0.63,0.773 1.408,0.773c0.776,0 1.406,-0.346 1.406,-0.773l0,-12.341l-2.814,0Z" style="fill:#6e4d42;fill-rule:nonzero;"/><path d="M234.11,319.453l0,12.341c0,0.427 -0.63,0.773 -1.406,0.773l0,-13.114l1.406,0Z" style="fill:#5e4137;fill-rule:nonzero;"/><path d="M232.704,292.061l-12.908,33.948l25.815,0l-12.907,-33.948l0,0Z" style="fill:#417db1;fill-rule:nonzero;"/><path d="M245.611,326.01l-12.907,-33.948l0,33.948l12.907,0Z" style="fill:#0d4779;fill-rule:nonzero;"/><path d="M29.147,323.438l0,23.495c0,0.813 1.199,1.472 2.678,1.472c1.48,0 2.679,-0.659 2.679,-1.472l0,-23.495l-5.357,0l0,0Z" style="fill:#6e4d42;fill-rule:nonzero;"/><path d="M34.504,323.438l0,23.495c0,0.813 -1.199,1.472 -2.678,1.472l0,-24.967l2.678,0Z" style="fill:#4e352e;fill-rule:nonzero;"/><path d="M49.585,309.268c0,15.397 -7.952,27.88 -17.759,27.88c-9.809,0 -17.76,-12.483 -17.76,-27.88c0,-15.397 7.951,-27.88 17.76,-27.88c9.807,0 17.759,12.483 17.759,27.88" style="fill:#417db1;fill-rule:nonzero;"/><path d="M31.825,281.388l0,55.761c9.808,0 17.759,-12.483 17.759,-27.881c0,-15.397 -7.951,-27.88 -17.759,-27.88" style="fill:#0d4779;fill-rule:nonzero;"/><path d="M25.3,326.184c0,0.788 -0.765,1.426 -1.71,1.426c-0.944,0 -1.709,-0.638 -1.709,-1.426c0,-0.788 0.765,-1.426 1.709,-1.426c0.945,0 1.71,0.638 1.71,1.426" style="fill:#0d4779;fill-rule:nonzero;"/><path d="M29.903,315.828c0,0.788 -0.765,1.426 -1.71,1.426c-0.944,0 -1.709,-0.638 -1.709,-1.426c0,-0.788 0.765,-1.426 1.709,-1.426c0.945,0 1.71,0.638 1.71,1.426" style="fill:#0d4779;fill-rule:nonzero;"/><path d="M19.141,308.226c0,0.788 -0.765,1.426 -1.71,1.426c-0.944,0 -1.709,-0.638 -1.709,-1.426c0,-0.788 0.765,-1.426 1.709,-1.426c0.945,0 1.71,0.638 1.71,1.426" style="fill:#0d4779;fill-rule:nonzero;"/><path d="M28.193,298.349c0,0.788 -0.765,1.426 -1.709,1.426c-0.945,0 -1.71,-0.638 -1.71,-1.426c0,-0.787 0.765,-1.426 1.71,-1.426c0.944,0 1.709,0.639 1.709,1.426" style="fill:#0d4779;fill-rule:nonzero;"/><path d="M37.165,287.553c0,0.788 -0.765,1.426 -1.709,1.426c-0.945,0 -1.71,-0.638 -1.71,-1.426c0,-0.787 0.765,-1.426 1.71,-1.426c0.944,0 1.709,0.639 1.709,1.426" style="fill:#417db1;fill-rule:nonzero;"/><path d="M44.125,294.608c0,0.788 -0.765,1.426 -1.709,1.426c-0.945,0 -1.71,-0.638 -1.71,-1.426c0,-0.788 0.765,-1.426 1.71,-1.426c0.944,0 1.709,0.638 1.709,1.426" style="fill:#417db1;fill-rule:nonzero;"/><path d="M37.165,302.827c0,0.788 -0.765,1.426 -1.709,1.426c-0.945,0 -1.71,-0.638 -1.71,-1.426c0,-0.787 0.765,-1.426 1.71,-1.426c0.944,0 1.709,0.639 1.709,1.426" style="fill:#417db1;fill-rule:nonzero;"/><path d="M44.125,307.489c0,0.788 -0.765,1.426 -1.709,1.426c-0.945,0 -1.71,-0.638 -1.71,-1.426c0,-0.787 0.765,-1.426 1.71,-1.426c0.944,0 1.709,0.639 1.709,1.426" style="fill:#417db1;fill-rule:nonzero;"/><path d="M36.584,318.68c0,0.788 -0.765,1.426 -1.709,1.426c-0.945,0 -1.71,-0.638 -1.71,-1.426c0,-0.788 0.765,-1.426 1.71,-1.426c0.944,0 1.709,0.638 1.709,1.426" style="fill:#417db1;fill-rule:nonzero;"/><path d="M42.1,328.434c0,0.788 -0.766,1.426 -1.71,1.426c-0.944,0 -1.71,-0.638 -1.71,-1.426c0,-0.788 0.766,-1.426 1.71,-1.426c0.944,0 1.71,0.638 1.71,1.426" style="fill:#417db1;fill-rule:nonzero;"/><path d="M25.3,289.884c0,0.788 -0.765,1.426 -1.71,1.426c-0.944,0 -1.709,-0.638 -1.709,-1.426c0,-0.788 0.765,-1.426 1.709,-1.426c0.945,0 1.71,0.638 1.71,1.426" style="fill:#0d4779;fill-rule:nonzero;"/><path d="M27.769,347.073c-2.528,0 -4.577,1.709 -4.577,3.818l9.154,0c0,-2.109 -2.048,-3.818 -4.577,-3.818" style="fill:#1e7dd0;fill-rule:nonzero;"/><path d="M36.578,344.452c-4.263,0 -7.719,2.883 -7.719,6.439l15.438,0c0,-3.556 -3.456,-6.439 -7.719,-6.439" style="fill:#225b8b;fill-rule:nonzero;"/></svg>